<?xml version="1.0" encoding="utf-8"?>
<!-- Generator: Adobe Illustrator 19.2.0, SVG Export Plug-In . SVG Version: 6.00 Build 0)  -->
<!DOCTYPE svg PUBLIC "-//W3C//DTD SVG 1.1//EN" "http://www.w3.org/Graphics/SVG/1.1/DTD/svg11.dtd">
<svg version="1.1" id="Layer_1" xmlns="http://www.w3.org/2000/svg" xmlns:xlink="http://www.w3.org/1999/xlink" x="0px" y="0px"
	 viewBox="0 0 200 200" style="enable-background:new 0 0 200 200;" xml:space="preserve">
<path d="M183.1,74.9c0.3,2,0.5,3.9,0.7,5.9c0.5,4.4,0.4,8.9-0.4,13.3c-2.3,12.4-3,25-2.5,37.6c0.4,10.7,0.2,21.4-0.2,32.1
	c0,1.3-0.6,2.1-1.8,2.4c-1,0.3-2.1,0.5-3.1,0.5c-6.2,0-12.3-0.1-18.5-0.2c-2.8-0.1-3.5-0.8-3.7-3.7c-0.1-1,0.1-2.1,0.1-3.2
	c-0.1-4.1,0-8.2-0.3-12.2c-0.5-6.1-6-11.3-12.6-11.7c-5.8-0.4-11.6-0.3-17.4-0.3c-4.4,0-8.7,0.2-13.1,0.5c-1.9,0.1-3.8,0.7-5.6,1.4
	c-4.9,1.8-7.1,5.6-7.4,10.6c-0.2,3.8-0.3,7.6-0.5,11.3c-0.1,1.5-0.4,2.9-0.8,4.3c-0.5,1.7-1.8,2.5-3.5,2.5
	c-6.5-0.1-13.1-0.2-19.6-0.3c-2.1,0-3.5-1.2-4.5-3.1c-1.3-2.5-1.6-5.3-1.6-8.1c0-6.8,0.2-13.6,0.4-20.4c0-2.3,0-4.6,0-7.2
	c-0.5,0.4-0.9,0.7-1.2,1c-3.6,3.8-7.9,6.8-12.7,9c-5.3,2.5-11,2.9-16.8,2.5c-10.3-0.8-18.7-5.3-25.4-13.2c-3.9-4.6-6.1-9.9-7.5-15.7
	c-1.8-7.4-3.1-14.8-3.4-22.3c-0.2-4.2-0.3-3.7,3.7-4.8c3.4-1,8.4-0.8,10.9,0.2c0.2,3.7,0.3,7.4,0.6,11.1c0.4,4.8,1.6,9.4,4.8,13.3
	c3.1,3.8,7.6,5.3,11.6,4c4.1-1.4,6.5-4.3,6.9-8.5c0.3-3.4,0.3-6.8-0.1-10.1c-1.7-15,3.1-27.4,14.1-37.6c7.9-7.3,17.2-11.7,28-13
	c1-0.1,2.1-0.7,3-1.2c4-2.1,7.9-4.5,12-6.3c6-2.7,12.3-2.6,18.4-0.3c4.5,1.7,7.5,4.9,9.1,9.4c0.3,0.8,0.6,1,1.4,1
	c6.5,0,13,0,19.5,0.2c10.5,0.4,20.1,3.7,28.2,10.5c1.9,1.6,3.4,3.8,5,5.7c1.1,1.3,2.1,2.8,3.2,4.1c1.7,2,3.9,3.2,6.4,3.8
	c1.2,0.3,2.4,0.1,3.5-0.5c2.1-1.1,3.8-2.7,5.2-4.6c0.4-0.6,1.1-1.1,1.7-1.3c0.9-0.3,1.8,0.1,2.3,0.9c0.6,0.9,0.6,1.8,0,2.6
	c-3.8,5.3-8.8,8.4-15.6,7.9C183.7,75,183.5,74.9,183.1,74.9z"/>
</svg>
